# xmcd
#
# Track frame offsets: 
#        150
#        19068
#        37606
#        55225
#        75383
#        94785
#        112790
#        126664
#        142294
#        160324
#
# Disc length: 2324 seconds
#
# Revision: 0
# Processed by: cddbd v1.5.2PL0 Copyright (c) Steve Scherf et al.
# Submitted via: ExactAudioCopy v0.95b3
#
DISCID=7b09120a
DTITLE=International Pentecostal Church Choir - Thula Sizwe
DYEAR=1989
DGENRE=Gospel
TTITLE0=Jesu Ke Mmoloki
TTITLE1=Jehova Modimo
TTITLE2=Amen, Rea Leboga
TTITLE3=Oh! Jehovah
TTITLE4=Ivangeli
TTITLE5=Thula Sizwe
TTITLE6=Wanyamalala
TTITLE7=Ujesu Wami Uyaphila
TTITLE8=Ndikhokhele
TTITLE9=Isilephere
EXTD=
EXTT0=
EXTT1=
EXTT2=
EXTT3=
EXTT4=
EXTT5=
EXTT6=
EXTT7=
EXTT8=
EXTT9=
PLAYORDER=
